# xmcd
#
# Track frame offsets:
#	150
#	13327
#	22389
#	38052
#	48601
#	56645
#	68153
#	78201
#	89101
#	98596
#	110607
#	121525
#	135948
#	151578
#
# Disc length: 2219 seconds
# Revision: 0
# Processed by: cddbd v1.5.2PL0 Copyright (c) Steve Scherf et al.
# Submitted via: dBpowerAMP V12.0
#
DISCID=b008a90e
DTITLE=The Tennessee Mafia Jug Band - Screams From The Holler
DYEAR=2012
DGENRE=Country
TTITLE0=Wabash Cannonball
TTITLE1=Lula Wall
TTITLE2=Frankie and Johnnie
TTITLE3=Big Daddy (Is Alabamy Bound)
TTITLE4=Hell Amongst The Yearlings
TTITLE5=Down In Union County
TTITLE6=Kansas City Star
TTITLE7=Mississippi Sawyer
TTITLE8=Sunshine Special
TTITLE9=My Gal Is A Highborn Lady
TTITLE10=Bed Of Roses
TTITLE11=I'm Alone Again
TTITLE12=Sick, Sober and Sorry
TTITLE13=Country Boy
EXTD=
EXTT0=
EXTT1=
EXTT2=
EXTT3=
EXTT4=
EXTT5=
EXTT6=
EXTT7=
EXTT8=
EXTT9=
EXTT10=
EXTT11=
EXTT12=
EXTT13=
PLAYORDER=
